<svg width="32" height="32" viewBox="0 0 7 12" fill="#cbcbcb" xmlns="http://www.w3.org/2000/svg">
<path d="M6.29246 10.872C6.38516 10.7795 6.45871 10.6696 6.50889 10.5486C6.55907 10.4277 6.5849 10.298 6.5849 10.167C6.5849 10.036 6.55907 9.90636 6.50889 9.78539C6.45871 9.66441 6.38516 9.55452 6.29246 9.46201L2.41246 5.58201L6.29246 1.70201C6.38504 1.60943 6.45848 1.49952 6.50858 1.37855C6.55869 1.25759 6.58448 1.12794 6.58448 0.99701C6.58448 0.86608 6.55869 0.73643 6.50858 0.615466C6.45848 0.494502 6.38504 0.38459 6.29246 0.292008C6.19987 0.199426 6.08996 0.125988 5.969 0.0758829C5.84804 0.0257779 5.71839 -1.05671e-05 5.58746 -1.05776e-05C5.45653 -1.05881e-05 5.32688 0.0257778 5.20591 0.0758828C5.08495 0.125988 4.97504 0.199426 4.88246 0.292008L0.292456 4.88201C0.199753 4.97452 0.126205 5.08441 0.0760236 5.20538C0.0258422 5.32636 1.19433e-05 5.45604 1.19318e-05 5.58701C1.19204e-05 5.71798 0.0258421 5.84766 0.0760236 5.96863C0.126205 6.08961 0.199753 6.1995 0.292456 6.29201L4.88246 10.882C5.26246 11.262 5.90246 11.262 6.29246 10.872Z" fill="#cbcbcb"/>
</svg>
